<svg width="142" height="62" viewBox="0 0 142 62" fill="none" xmlns="http://www.w3.org/2000/svg">
<path d="M28.7746 17.7901C28.1896 17.7858 27.616 17.9527 27.1246 18.2701C26.6323 18.5876 26.2404 19.0384 25.9946 19.5701H25.7046C25.2989 19.5688 24.897 19.6479 24.522 19.8028C24.1471 19.9578 23.8066 20.1855 23.5202 20.4728C23.2338 20.7601 23.0072 21.1014 22.8535 21.4768C22.6997 21.8523 22.622 22.2544 22.6246 22.6601V22.8401C22.2792 22.9948 21.9796 23.2358 21.7546 23.5401C21.531 23.8319 21.3864 24.1763 21.3346 24.5401C20.6992 24.7296 20.1419 25.1189 19.7456 25.6504C19.3492 26.1819 19.1349 26.8271 19.1346 27.4901C19.135 28.0623 19.2942 28.6231 19.5946 29.1101C19.2784 29.452 19.0341 29.8538 18.8761 30.2919C18.7181 30.7299 18.6495 31.1951 18.6746 31.6601C18.7198 32.5886 19.1295 33.4618 19.8146 34.0901C19.6057 34.5857 19.5166 35.1236 19.5546 35.6601C19.586 36.2023 19.7435 36.7296 20.0146 37.2001C20.2866 37.6703 20.6638 38.0712 21.1166 38.3713C21.5694 38.6715 22.0856 38.8627 22.6246 38.9301H22.7846C22.9379 39.367 23.2033 39.7559 23.5544 40.0578C23.9054 40.3597 24.3297 40.564 24.7846 40.6501C24.732 41.1412 24.7834 41.6378 24.9353 42.1077C25.0872 42.5776 25.3364 43.0103 25.6665 43.3776C25.9966 43.745 26.4003 44.0387 26.8513 44.2398C27.3024 44.4409 27.7907 44.5448 28.2846 44.5448C28.7785 44.5448 29.2668 44.4409 29.7179 44.2398C30.1689 44.0387 30.5726 43.745 30.9027 43.3776C31.2328 43.0103 31.482 42.5776 31.6339 42.1077C31.7858 41.6378 31.8372 41.1412 31.7846 40.6501V20.8701C31.7859 20.4653 31.7072 20.0642 31.5528 19.6899C31.3985 19.3156 31.1717 18.9756 30.8854 18.6893C30.5992 18.403 30.2591 18.1762 29.8848 18.0219C29.5105 17.8676 29.1094 17.7888 28.7046 17.7901H28.7746Z" fill="#4EA8ED"/>
<path d="M34.9346 29.2303H33.1746V28.3503H34.9346C35.0513 28.3503 35.1632 28.3039 35.2457 28.2214C35.3282 28.1389 35.3746 28.027 35.3746 27.9103V24.8303H36.2546V27.9103C36.2519 28.2595 36.112 28.5938 35.865 28.8408C35.6181 29.0877 35.2838 29.2277 34.9346 29.2303ZM35.8146 23.9503C35.5518 23.9522 35.2945 23.8757 35.0755 23.7305C34.8565 23.5852 34.6858 23.378 34.5853 23.1352C34.4848 22.8924 34.459 22.6252 34.5113 22.3677C34.5636 22.1102 34.6915 21.8741 34.8787 21.6898C35.0659 21.5054 35.3039 21.3811 35.5622 21.3328C35.8205 21.2845 36.0873 21.3144 36.3285 21.4186C36.5697 21.5228 36.7743 21.6967 36.9161 21.9179C37.058 22.1391 37.1305 22.3976 37.1246 22.6603C37.1168 23.0034 36.9756 23.33 36.7311 23.5708C36.4865 23.8117 36.1578 23.9478 35.8146 23.9503ZM35.8146 22.1903C35.6979 22.1903 35.5859 22.2366 35.5034 22.3191C35.4209 22.4017 35.3746 22.5136 35.3746 22.6303C35.3746 22.747 35.4209 22.8589 35.5034 22.9414C35.5859 23.0239 35.6979 23.0703 35.8146 23.0703C35.9313 23.0703 36.0432 23.0239 36.1257 22.9414C36.2082 22.8589 36.2546 22.747 36.2546 22.6303C36.2546 22.5136 36.2082 22.4017 36.1257 22.3191C36.0432 22.2366 35.9313 22.1903 35.8146 22.1903ZM36.2546 37.1903H35.3746V34.0703C35.3746 33.9536 35.3282 33.8417 35.2457 33.7591C35.1632 33.6766 35.0513 33.6303 34.9346 33.6303H33.1746V32.7503H34.9346C35.2838 32.7529 35.6181 32.8928 35.865 33.1398C36.112 33.3868 36.2519 33.721 36.2546 34.0703V37.1903ZM35.8146 40.6603C35.5531 40.6623 35.2969 40.5865 35.0785 40.4427C34.8601 40.2989 34.6894 40.0934 34.5879 39.8524C34.4865 39.6114 34.4589 39.3456 34.5087 39.0889C34.5585 38.8322 34.6834 38.5961 34.8676 38.4105C35.0518 38.2249 35.287 38.0982 35.5433 38.0464C35.7997 37.9947 36.0656 38.0202 36.3074 38.1198C36.5491 38.2194 36.7559 38.3886 36.9014 38.6059C37.0469 38.8232 37.1246 39.0788 37.1246 39.3403C37.122 39.6878 36.9835 40.0206 36.7386 40.2673C36.4938 40.514 36.1621 40.6551 35.8146 40.6603ZM35.8146 38.9003C35.7564 38.8989 35.6986 38.9093 35.6446 38.931C35.5906 38.9526 35.5415 38.985 35.5004 39.0261C35.4593 39.0672 35.4269 39.1163 35.4053 39.1703C35.3836 39.2243 35.3732 39.2821 35.3746 39.3403C35.3746 39.457 35.4209 39.5689 35.5034 39.6514C35.5859 39.7339 35.6979 39.7803 35.8146 39.7803C35.9313 39.7803 36.0432 39.7339 36.1257 39.6514C36.2082 39.5689 36.2546 39.457 36.2546 39.3403C36.2494 39.2271 36.2008 39.1202 36.1188 39.042C36.0369 38.9638 35.9279 38.9202 35.8146 38.9203V38.9003ZM37.5646 31.4103H33.1746V30.5303H37.5646C37.9146 30.5303 38.2504 30.3912 38.4979 30.1436C38.7455 29.8961 38.8846 29.5604 38.8846 29.2103V27.9103H39.7646V29.2303C39.7659 29.5195 39.7099 29.8062 39.5998 30.0737C39.4897 30.3412 39.3277 30.5843 39.1231 30.7889C38.9186 30.9934 38.6755 31.1554 38.408 31.2655C38.1405 31.3756 37.8538 31.4316 37.5646 31.4303V31.4103ZM39.3146 27.0303C39.0535 27.0303 38.7983 26.9529 38.5812 26.8078C38.3641 26.6628 38.1949 26.4566 38.095 26.2154C37.9951 25.9742 37.969 25.7088 38.0199 25.4527C38.0709 25.1967 38.1966 24.9615 38.3812 24.7769C38.5658 24.5923 38.801 24.4666 39.057 24.4156C39.3131 24.3647 39.5785 24.3908 39.8197 24.4907C40.0609 24.5907 40.2671 24.7598 40.4121 24.9769C40.5571 25.194 40.6346 25.4492 40.6346 25.7103C40.6319 26.0595 40.492 26.3938 40.245 26.6408C39.9981 26.8877 39.6638 27.0277 39.3146 27.0303ZM39.3146 25.2703C39.2275 25.2703 39.1425 25.2961 39.0701 25.3444C38.9978 25.3928 38.9414 25.4615 38.9081 25.5419C38.8748 25.6223 38.866 25.7108 38.883 25.7961C38.9 25.8815 38.9419 25.9599 39.0034 26.0214C39.065 26.0829 39.1434 26.1248 39.2287 26.1418C39.3141 26.1588 39.4025 26.1501 39.4829 26.1168C39.5633 26.0835 39.6321 26.0271 39.6804 25.9547C39.7288 25.8824 39.7546 25.7973 39.7546 25.7103C39.7546 25.5936 39.7082 25.4817 39.6257 25.3991C39.5432 25.3166 39.4313 25.2703 39.3146 25.2703ZM38.8746 32.7503H39.7546V37.1603H38.8746V32.7503ZM41.0746 26.5903H41.9546V33.5903H41.0746V26.5903ZM41.0746 34.5103H41.9546V35.3903H41.0746V34.5103Z" fill="#4EA8ED"/>
<path d="M28.7746 20.4302H29.6546V21.3102H28.7746V20.4302ZM26.5746 30.5502H27.4546V31.4302H26.5746V30.5502ZM29.2146 40.2402H30.0946V41.1202H29.2146V40.2402ZM21.7446 33.6602H22.6246V34.5402H21.7446V33.6602ZM29.6546 27.5002H30.5346V28.3802H29.6546V27.5002ZM21.3146 28.3502H22.1946V29.2302H21.3146V28.3502Z" fill="#04162B"/>
<path d="M28.7746 17.7901C28.1896 17.7858 27.616 17.9527 27.1246 18.2701C26.6323 18.5876 26.2404 19.0384 25.9946 19.5701H25.7046C25.2989 19.5688 24.897 19.6479 24.522 19.8028C24.1471 19.9578 23.8066 20.1855 23.5202 20.4728C23.2338 20.7601 23.0072 21.1014 22.8535 21.4768C22.6997 21.8523 22.622 22.2544 22.6246 22.6601V22.8401C22.2792 22.9948 21.9796 23.2358 21.7546 23.5401C21.531 23.8319 21.3864 24.1763 21.3346 24.5401C20.6992 24.7296 20.1419 25.1189 19.7456 25.6504C19.3492 26.1819 19.1349 26.8271 19.1346 27.4901C19.135 28.0623 19.2942 28.6231 19.5946 29.1101C19.2784 29.452 19.0341 29.8538 18.8761 30.2919C18.7181 30.7299 18.6495 31.1951 18.6746 31.6601C18.7198 32.5886 19.1295 33.4618 19.8146 34.0901C19.6057 34.5857 19.5166 35.1236 19.5546 35.6601C19.586 36.2023 19.7435 36.7296 20.0146 37.2001C20.2866 37.6703 20.6638 38.0712 21.1166 38.3713C21.5694 38.6715 22.0856 38.8627 22.6246 38.9301H22.7846C22.9379 39.367 23.2033 39.7559 23.5544 40.0578C23.9054 40.3597 24.3297 40.564 24.7846 40.6501C24.732 41.1412 24.7834 41.6378 24.9353 42.1077C25.0872 42.5776 25.3364 43.0103 25.6665 43.3776C25.9966 43.745 26.4003 44.0387 26.8513 44.2398C27.3024 44.4409 27.7907 44.5448 28.2846 44.5448C28.7785 44.5448 29.2668 44.4409 29.7179 44.2398C30.1689 44.0387 30.5726 43.745 30.9027 43.3776C31.2328 43.0103 31.482 42.5776 31.6339 42.1077C31.7858 41.6378 31.8372 41.1412 31.7846 40.6501V20.8701C31.7859 20.4653 31.7072 20.0642 31.5528 19.6899C31.3985 19.3156 31.1717 18.9756 30.8854 18.6893C30.5992 18.403 30.2591 18.1762 29.8848 18.0219C29.5105 17.8676 29.1094 17.7888 28.7046 17.7901H28.7746Z" fill="#4EA8ED"/>
<path d="M34.9346 29.2303H33.1746V28.3503H34.9346C35.0513 28.3503 35.1632 28.3039 35.2457 28.2214C35.3282 28.1389 35.3746 28.027 35.3746 27.9103V24.8303H36.2546V27.9103C36.2519 28.2595 36.112 28.5938 35.865 28.8408C35.6181 29.0877 35.2838 29.2277 34.9346 29.2303ZM35.8146 23.9503C35.5518 23.9522 35.2945 23.8757 35.0755 23.7305C34.8565 23.5852 34.6858 23.378 34.5853 23.1352C34.4848 22.8924 34.459 22.6252 34.5113 22.3677C34.5636 22.1102 34.6915 21.8741 34.8787 21.6898C35.0659 21.5054 35.3039 21.3811 35.5622 21.3328C35.8205 21.2845 36.0873 21.3144 36.3285 21.4186C36.5697 21.5228 36.7743 21.6967 36.9161 21.9179C37.058 22.1391 37.1305 22.3976 37.1246 22.6603C37.1168 23.0034 36.9756 23.33 36.7311 23.5708C36.4865 23.8117 36.1578 23.9478 35.8146 23.9503ZM35.8146 22.1903C35.6979 22.1903 35.5859 22.2366 35.5034 22.3191C35.4209 22.4017 35.3746 22.5136 35.3746 22.6303C35.3746 22.747 35.4209 22.8589 35.5034 22.9414C35.5859 23.0239 35.6979 23.0703 35.8146 23.0703C35.9313 23.0703 36.0432 23.0239 36.1257 22.9414C36.2082 22.8589 36.2546 22.747 36.2546 22.6303C36.2546 22.5136 36.2082 22.4017 36.1257 22.3191C36.0432 22.2366 35.9313 22.1903 35.8146 22.1903ZM36.2546 37.1903H35.3746V34.0703C35.3746 33.9536 35.3282 33.8417 35.2457 33.7591C35.1632 33.6766 35.0513 33.6303 34.9346 33.6303H33.1746V32.7503H34.9346C35.2838 32.7529 35.6181 32.8928 35.865 33.1398C36.112 33.3868 36.2519 33.721 36.2546 34.0703V37.1903ZM35.8146 40.6603C35.5531 40.6623 35.2969 40.5865 35.0785 40.4427C34.8601 40.2989 34.6894 40.0934 34.5879 39.8524C34.4865 39.6114 34.4589 39.3456 34.5087 39.0889C34.5585 38.8322 34.6834 38.5961 34.8676 38.4105C35.0518 38.2249 35.287 38.0982 35.5433 38.0464C35.7997 37.9947 36.0656 38.0202 36.3074 38.1198C36.5491 38.2194 36.7559 38.3886 36.9014 38.6059C37.0469 38.8232 37.1246 39.0788 37.1246 39.3403C37.122 39.6878 36.9835 40.0206 36.7386 40.2673C36.4938 40.514 36.1621 40.6551 35.8146 40.6603ZM35.8146 38.9003C35.7564 38.8989 35.6986 38.9093 35.6446 38.931C35.5906 38.9526 35.5415 38.985 35.5004 39.0261C35.4593 39.0672 35.4269 39.1163 35.4053 39.1703C35.3836 39.2243 35.3732 39.2821 35.3746 39.3403C35.3746 39.457 35.4209 39.5689 35.5034 39.6514C35.5859 39.7339 35.6979 39.7803 35.8146 39.7803C35.9313 39.7803 36.0432 39.7339 36.1257 39.6514C36.2082 39.5689 36.2546 39.457 36.2546 39.3403C36.2494 39.2271 36.2008 39.1202 36.1188 39.042C36.0369 38.9638 35.9279 38.9202 35.8146 38.9203V38.9003ZM37.5646 31.4103H33.1746V30.5303H37.5646C37.9146 30.5303 38.2504 30.3912 38.4979 30.1436C38.7455 29.8961 38.8846 29.5604 38.8846 29.2103V27.9103H39.7646V29.2303C39.7659 29.5195 39.7099 29.8062 39.5998 30.0737C39.4897 30.3412 39.3277 30.5843 39.1231 30.7889C38.9186 30.9934 38.6755 31.1554 38.408 31.2655C38.1405 31.3756 37.8538 31.4316 37.5646 31.4303V31.4103ZM39.3146 27.0303C39.0535 27.0303 38.7983 26.9529 38.5812 26.8078C38.3641 26.6628 38.1949 26.4566 38.095 26.2154C37.9951 25.9742 37.969 25.7088 38.0199 25.4527C38.0709 25.1967 38.1966 24.9615 38.3812 24.7769C38.5658 24.5923 38.801 24.4666 39.057 24.4156C39.3131 24.3647 39.5785 24.3908 39.8197 24.4907C40.0609 24.5907 40.2671 24.7598 40.4121 24.9769C40.5571 25.194 40.6346 25.4492 40.6346 25.7103C40.6319 26.0595 40.492 26.3938 40.245 26.6408C39.9981 26.8877 39.6638 27.0277 39.3146 27.0303ZM39.3146 25.2703C39.2275 25.2703 39.1425 25.2961 39.0701 25.3444C38.9978 25.3928 38.9414 25.4615 38.9081 25.5419C38.8748 25.6223 38.866 25.7108 38.883 25.7961C38.9 25.8815 38.9419 25.9599 39.0034 26.0214C39.065 26.0829 39.1434 26.1248 39.2287 26.1418C39.3141 26.1588 39.4025 26.1501 39.4829 26.1168C39.5633 26.0835 39.6321 26.0271 39.6804 25.9547C39.7288 25.8824 39.7546 25.7973 39.7546 25.7103C39.7546 25.5936 39.7082 25.4817 39.6257 25.3991C39.5432 25.3166 39.4313 25.2703 39.3146 25.2703ZM38.8746 32.7503H39.7546V37.1603H38.8746V32.7503ZM41.0746 26.5903H41.9546V33.5903H41.0746V26.5903ZM41.0746 34.5103H41.9546V35.3903H41.0746V34.5103Z" fill="#4EA8ED"/>
<path d="M28.7746 20.4302H29.6546V21.3102H28.7746V20.4302ZM26.5746 30.5502H27.4546V31.4302H26.5746V30.5502ZM29.2146 40.2402H30.0946V41.1202H29.2146V40.2402ZM21.7446 33.6602H22.6246V34.5402H21.7446V33.6602ZM29.6546 27.5002H30.5346V28.3802H29.6546V27.5002ZM21.3146 28.3502H22.1946V29.2302H21.3146V28.3502Z" fill="#04162B"/>
<path d="M28.7546 17.4302C29.3064 17.4301 29.8504 17.5605 30.3423 17.8108C30.8341 18.061 31.2598 18.4241 31.5846 18.8702C31.7212 18.5725 31.9188 18.3067 32.1646 18.0902C32.4067 17.886 32.6897 17.736 32.9946 17.6502C33.2996 17.5606 33.6207 17.5401 33.9346 17.5902C37.1692 18.0737 40.1226 19.7025 42.2574 22.1802C44.3923 24.6579 45.5665 27.8197 45.5665 31.0902C45.5665 34.3607 44.3923 37.5225 42.2574 40.0002C40.1226 42.4778 37.1692 44.1067 33.9346 44.5902C33.4225 44.6713 32.8982 44.5681 32.4551 44.2989C32.0119 44.0297 31.6787 43.612 31.5146 43.1202C31.0275 43.7504 30.3634 44.2208 29.6074 44.4713C28.8513 44.7217 28.0377 44.7407 27.2707 44.5259C26.5038 44.3111 25.8184 43.8722 25.3024 43.2654C24.7865 42.6587 24.4634 41.9117 24.3746 41.1202C23.9503 41.0005 23.5577 40.7888 23.2246 40.5002C22.8918 40.2043 22.623 39.8436 22.4346 39.4402C21.505 39.2888 20.6586 38.8143 20.0446 38.1002C19.4171 37.3891 19.0627 36.4783 19.0446 35.5302C19.057 35.0843 19.1484 34.6441 19.3146 34.2302C18.6672 33.5512 18.2833 32.6636 18.232 31.7268C18.1807 30.7901 18.4652 29.8658 19.0346 29.1202C18.8141 28.6806 18.6888 28.1994 18.6667 27.7081C18.6447 27.2168 18.7264 26.7263 18.9066 26.2687C19.0868 25.8111 19.3615 25.3966 19.7126 25.0523C20.0638 24.7079 20.4835 24.4414 20.9446 24.2702C21.0342 23.9264 21.1905 23.6036 21.4046 23.3202C21.6161 23.0369 21.8854 22.8017 22.1946 22.6302C22.2129 21.7115 22.5908 20.8366 23.2471 20.1934C23.9033 19.5502 24.7857 19.19 25.7046 19.1902C26.0129 18.6542 26.4573 18.2091 26.9929 17.9C27.5285 17.591 28.1362 17.4289 28.7546 17.4302ZM28.7546 18.3102C28.0544 18.3102 27.3829 18.5883 26.8878 19.0834C26.3927 19.5785 26.1146 20.25 26.1146 20.9502C26.1146 21.6504 26.3927 22.3218 26.8878 22.8169C27.3829 23.312 28.0544 23.5902 28.7546 23.5902V24.4702C28.2162 24.4763 27.6837 24.3584 27.1981 24.1257C26.7126 23.8931 26.2871 23.5518 25.9546 23.1284C25.622 22.705 25.3913 22.2107 25.2804 21.6839C25.1694 21.1571 25.1811 20.6118 25.3146 20.0902C24.7451 20.1622 24.2147 20.4186 23.8046 20.8202C23.3958 21.2182 23.1259 21.737 23.0346 22.3002C23.1711 22.2903 23.3081 22.2903 23.4446 22.3002C24.1447 22.3002 24.8162 22.5783 25.3113 23.0734C25.8064 23.5685 26.0846 24.24 26.0846 24.9402H25.2046C25.2125 24.5888 25.115 24.2431 24.9247 23.9476C24.7344 23.6521 24.4599 23.4204 24.1368 23.2823C23.8136 23.1441 23.4565 23.1059 23.1114 23.1725C22.7663 23.2392 22.449 23.4076 22.2005 23.6561C21.952 23.9046 21.7836 24.2219 21.7169 24.567C21.6503 24.9121 21.6885 25.2692 21.8267 25.5924C21.9648 25.9156 22.1965 26.19 22.492 26.3803C22.7875 26.5706 23.1332 26.6681 23.4846 26.6602V27.5402C22.8456 27.5407 22.2283 27.3085 21.748 26.8871C21.2676 26.4657 20.9572 25.8838 20.8746 25.2502C20.5637 25.4227 20.2911 25.6568 20.0736 25.938C19.856 26.2193 19.698 26.5418 19.6091 26.8861C19.5203 27.2304 19.5024 27.5892 19.5566 27.9406C19.6109 28.292 19.736 28.6287 19.9246 28.9302L20.0946 29.2102L19.8746 29.4502C19.3965 29.9787 19.1179 30.6576 19.0869 31.3696C19.0559 32.0815 19.2743 32.782 19.7046 33.3502C20.063 32.7879 20.5563 32.324 21.1396 32.0009C21.7229 31.6778 22.3778 31.5057 23.0446 31.5002V32.3902C22.4727 32.3883 21.9117 32.5462 21.4248 32.846C20.9379 33.1459 20.5444 33.5758 20.2886 34.0872C20.0329 34.5987 19.9251 35.1714 19.9774 35.7409C20.0297 36.3103 20.24 36.8538 20.5846 37.3102C20.9796 37.8478 21.5426 38.2384 22.1846 38.4202C22.1846 38.3202 22.1846 38.2102 22.1846 38.1102C22.1846 37.2933 22.5091 36.5099 23.0867 35.9323C23.6643 35.3547 24.4477 35.0302 25.2646 35.0302V35.9102C24.6811 35.9102 24.1215 36.142 23.7089 36.5545C23.2964 36.9671 23.0646 37.5267 23.0646 38.1102C23.0658 38.5474 23.1943 38.9748 23.4346 39.3402C23.6803 39.701 24.0287 39.9796 24.4346 40.1402C24.5888 39.2177 25.0614 38.3783 25.7702 37.7681C26.4791 37.1579 27.3794 36.8154 28.3146 36.8002V37.6602C27.7054 37.6602 27.1099 37.8408 26.6034 38.1793C26.0969 38.5177 25.7021 38.9987 25.469 39.5615C25.2359 40.1243 25.1749 40.7436 25.2938 41.3411C25.4126 41.9385 25.7059 42.4873 26.1367 42.9181C26.5674 43.3488 27.1162 43.6422 27.7137 43.761C28.3112 43.8798 28.9304 43.8188 29.4932 43.5857C30.056 43.3526 30.5371 42.9578 30.8755 42.4513C31.2139 41.9448 31.3946 41.3494 31.3946 40.7402V20.9502C31.3946 20.25 31.1164 19.5785 30.6213 19.0834C30.1262 18.5883 29.4547 18.3102 28.7546 18.3102ZM33.8046 18.4602C33.6167 18.4202 33.4225 18.4202 33.2346 18.4602C33.0533 18.52 32.884 18.6114 32.7346 18.7302C32.5915 18.8548 32.4765 19.0084 32.3972 19.1808C32.3179 19.3532 32.2761 19.5404 32.2746 19.7302V42.3802C32.275 42.5732 32.3159 42.764 32.3946 42.9402C32.4782 43.1105 32.5936 43.2632 32.7346 43.3902C32.884 43.5089 33.0533 43.6003 33.2346 43.6602C33.4225 43.7001 33.6167 43.7001 33.8046 43.6602C36.8107 43.1875 39.5492 41.6569 41.5267 39.344C43.5043 37.0312 44.591 34.0882 44.591 31.0452C44.591 28.0022 43.5043 25.0592 41.5267 22.7463C39.5492 20.4335 36.8107 18.9029 33.8046 18.4302V18.4602Z" fill="#04162B"/>
<path d="M25.5645 46.3802C22.4423 45.2185 19.75 43.1297 17.8489 40.3939C15.9478 37.6582 14.9289 34.4065 14.9289 31.0752C14.9289 27.7438 15.9478 24.4921 17.8489 21.7564C19.75 19.0207 22.4423 16.9318 25.5645 15.7702V0.660156C18.4659 1.98478 12.0541 5.75066 7.44001 11.3054C2.82588 16.8602 0.300049 23.854 0.300049 31.0752C0.300049 38.2964 2.82588 45.2901 7.44001 50.8449C12.0541 56.3996 18.4659 60.1655 25.5645 61.4902V46.3802Z" fill="#04162B"/>
<path d="M38.6746 6.84009V15.7701C41.7968 16.9318 44.4891 19.0206 46.3902 21.7563C48.2913 24.492 49.3102 27.7437 49.3102 31.0751C49.3102 34.4065 48.2913 37.6582 46.3902 40.3939C44.4891 43.1296 41.7968 45.2184 38.6746 46.3801V55.3101C44.1348 54.0222 49.0001 50.9282 52.482 46.5295C55.9639 42.1308 57.8584 36.6851 57.8584 31.0751C57.8584 25.4651 55.9639 20.0194 52.482 15.6207C49.0001 11.222 44.1348 8.12796 38.6746 6.84009Z" fill="#4EA8ED"/>
<path d="M54.7746 10.6602L58.0046 10.3702C54.7835 6.96234 50.8314 4.32962 46.4456 2.67023C42.0598 1.01084 37.3547 0.368035 32.6846 0.790197C32.1346 0.790197 31.6046 0.900197 31.0746 0.980197C35.4865 0.812948 39.8832 1.59003 43.9705 3.25944C48.0578 4.92884 51.7413 7.45206 54.7746 10.6602Z" fill="#04162B"/>
<path d="M54.5446 50.6602C51.6547 53.9899 48.0877 56.6649 44.0819 58.5066C40.076 60.3483 35.7234 61.3143 31.3146 61.3402C31.8446 61.3402 32.3846 61.4302 32.9246 61.4602C37.6045 61.6773 42.2728 60.8309 46.5786 58.9846C50.8844 57.1383 54.7157 54.34 57.7846 50.8002L54.5446 50.6602Z" fill="#04162B"/>
<path d="M71.4515 41.2751C70.6869 41.2751 69.9842 41.0891 69.3435 40.7171C68.7235 40.3451 68.2275 39.8388 67.8555 39.1981C67.4835 38.5575 67.2975 37.8548 67.2975 37.0901V35.6021H71.0175V36.9661C71.0175 37.1315 71.0692 37.2658 71.1725 37.3691C71.2759 37.4725 71.4102 37.5241 71.5755 37.5241H85.2775C85.4429 37.5241 85.5772 37.4725 85.6805 37.3691C85.8045 37.2658 85.8665 37.1315 85.8665 36.9661V32.5331C85.8665 32.3885 85.8045 32.2645 85.6805 32.1611C85.5772 32.0371 85.4429 31.9751 85.2775 31.9751H71.4515C70.6869 31.9751 69.9842 31.7891 69.3435 31.4171C68.7235 31.0451 68.2275 30.5491 67.8555 29.9291C67.4835 29.2885 67.2975 28.5858 67.2975 27.8211V23.1401C67.2975 22.3755 67.4835 21.6728 67.8555 21.0321C68.2275 20.3915 68.7235 19.8851 69.3435 19.5131C69.9842 19.1411 70.6869 18.9551 71.4515 18.9551H85.4325C86.1972 18.9551 86.8895 19.1411 87.5095 19.5131C88.1502 19.8851 88.6565 20.3915 89.0285 21.0321C89.4212 21.6728 89.6175 22.3755 89.6175 23.1401V24.6281H85.8665V23.2641C85.8665 23.0988 85.8045 22.9645 85.6805 22.8611C85.5772 22.7578 85.4429 22.7061 85.2775 22.7061H71.5755C71.4102 22.7061 71.2759 22.7578 71.1725 22.8611C71.0692 22.9645 71.0175 23.0988 71.0175 23.2641V27.6971C71.0175 27.8418 71.0692 27.9761 71.1725 28.1001C71.2759 28.2035 71.4102 28.2551 71.5755 28.2551H85.4325C86.1972 28.2551 86.8895 28.4411 87.5095 28.8131C88.1502 29.1851 88.6565 29.6915 89.0285 30.3321C89.4212 30.9521 89.6175 31.6445 89.6175 32.4091V37.0901C89.6175 37.8548 89.4212 38.5575 89.0285 39.1981C88.6565 39.8388 88.1502 40.3451 87.5095 40.7171C86.8895 41.0891 86.1972 41.2751 85.4325 41.2751H71.4515ZM93.0336 41.2751V18.9551H113.525V22.7061H96.7846V28.2551H110.27V31.9751H96.7846V37.5241H113.525V41.2751H93.0336ZM120.102 41.2751C119.338 41.2751 118.635 41.0891 117.994 40.7171C117.354 40.3451 116.847 39.8388 116.475 39.1981C116.103 38.5575 115.917 37.8548 115.917 37.0901V23.1401C115.917 22.3755 116.103 21.6728 116.475 21.0321C116.847 20.3915 117.354 19.8851 117.994 19.5131C118.635 19.1411 119.338 18.9551 120.102 18.9551H134.052C134.817 18.9551 135.509 19.1411 136.129 19.5131C136.77 19.8851 137.276 20.3915 137.648 21.0321C138.041 21.6728 138.237 22.3755 138.237 23.1401V37.0901C138.237 37.8548 138.041 38.5575 137.648 39.1981C137.276 39.8388 136.77 40.3451 136.129 40.7171C135.509 41.0891 134.817 41.2751 134.052 41.2751H120.102ZM120.195 37.5241H133.928C134.073 37.5241 134.197 37.4725 134.3 37.3691C134.424 37.2658 134.486 37.1315 134.486 36.9661V23.2641C134.486 23.0988 134.424 22.9645 134.3 22.8611C134.197 22.7578 134.073 22.7061 133.928 22.7061H120.195C120.051 22.7061 119.916 22.7578 119.792 22.8611C119.689 22.9645 119.637 23.0988 119.637 23.2641V36.9661C119.637 37.1315 119.689 37.2658 119.792 37.3691C119.916 37.4725 120.051 37.5241 120.195 37.5241Z" fill="#4EA8ED"/>
</svg>
